# Alias OBJ Model File
# Exported from SketchUp, (c) 2000-2012 Trimble Navigation Limited
# File units = meters

mtllib GravityGate.mtl

g Mesh1 Group1 Model

usemtl FrontColor
v -2.5 5 -1
vt 98.4252 3.93701
vn 0 1 -0
v -2.5 5 -0.9
vt 98.4252 0
v 2.5 5 -0.9
vt 295.276 5.68434e-14
v 2.5 5 -1
vt 295.276 3.93701
f 1/1/1 2/2/1 3/3/1 4/4/1 

v -5 2.5 -1
vt -3.93701 208.791
vn -0.707107 0.707107 2.59318e-15
v -5 2.5 -0.9
vt 1.04231e-28 208.791
vt 3.60956e-13 347.986
vt -3.93701 347.986
f 5/5/2 6/6/2 2/7/2 1/8/2 

v -5 -2.5 -1
vt -3.93701 98.4252
vn -1 1.37669e-31 7.21911e-15
v -5 -2.5 -0.9
vt 2.0518e-28 98.4252
vt 2.0518e-28 295.276
vt -3.93701 295.276
f 7/9/3 8/10/3 6/11/3 5/12/3 

v -2.5 -5 -1
vt -3.93701 -69.5971
vn -0.707107 -0.707107 1.29659e-15
v -2.5 -5 -0.9
vt 1.3074e-13 -69.5971
vt 6.47374e-29 69.5971
vt -3.93701 69.5971
f 9/13/4 10/14/4 8/15/4 7/16/4 

v 2.5 -5 -1
vt -295.276 3.93701
vn 0 -1 -0
v 2.5 -5 -0.9
vt -295.276 0
vt -98.4252 4.9738e-14
vt -98.4252 3.93701
f 11/17/5 12/18/5 10/19/5 9/20/5 

v 5 -2.5 -1
vt 3.93701 347.986
vn 0.707107 -0.707107 -0
v 5 -2.5 -0.9
vt 0 347.986
vt 0 208.791
vt 3.93701 208.791
f 13/21/6 14/22/6 12/23/6 11/24/6 

v 5 2.5 -1
vt 3.93701 295.276
vn 1 0 -0
v 5 2.5 -0.9
vt 5.68434e-14 295.276
vt 0 98.4252
vt 3.93701 98.4252
f 15/25/7 16/26/7 14/27/7 13/28/7 

vt 3.93701 69.5971
vn 0.707107 0.707107 1.29659e-15
vt 5.98277e-13 69.5971
vt 7.78755e-13 -69.5971
vt 3.93701 -69.5971
f 4/29/8 3/30/8 16/31/8 15/32/8 

vt -393.701 295.276
vn 1.26453e-16 -1.4811e-16 -1
v 2.41716 4.8 -1
vt -292.014 385.827
vt -295.276 393.701
f 15/33/9 17/34/9 4/35/9

v 4.8 2.41716 -1
vt -385.827 292.014
f 15/33/9 18/36/9 17/34/9

v 4.8 -2.41716 -1
vt -385.827 101.687
f 15/33/9 19/37/9 18/36/9

vt -393.701 98.4252
f 13/38/9 19/37/9 15/33/9

v 2.41716 -4.8 -1
vt -292.014 7.87402
f 13/38/9 20/39/9 19/37/9

vt -295.276 5.83111e-16
f 11/40/9 20/39/9 13/38/9

v -2.41716 -4.8 -1
vt -101.687 7.87402
f 20/39/9 11/40/9 21/41/9

vt -98.4252 5.83111e-16
f 9/42/9 21/41/9 11/40/9

vt 4.97846e-16 98.4252
f 21/41/9 9/42/9 7/43/9

v -4.8 -2.41716 -1
vt -7.87402 101.687
f 21/41/9 7/43/9 22/44/9

vt 4.97846e-16 295.276
f 22/44/9 7/43/9 5/45/9

v -4.8 2.41716 -1
vt -7.87402 292.014
f 22/44/9 5/45/9 23/46/9

v -2.41716 4.8 -1
vt -101.687 385.827
f 23/46/9 5/45/9 24/47/9

vt -98.4252 393.701
f 24/47/9 5/45/9 1/48/9

f 24/47/9 1/48/9 17/34/9

f 4/35/9 17/34/9 1/48/9

g Mesh2 Group2 Model

v 5 -2.5 -0
v 5 -2.5 -0.1
v 5 2.5 -0.1
v 5 2.5 -0
vt 0 295.276
f 25/27/7 26/28/7 27/25/7 28/49/7 

v 2.5 -5 -0
vt 3.2486e-12 208.791
vn 0.707107 -0.707107 7.77954e-15
v 2.5 -5 -0.1
vt 4.33147e-12 347.986
f 29/50/10 30/24/10 26/21/10 25/51/10 

v -2.5 -5 -0
vt -98.4252 -1.28237e-28
vn -7.21911e-17 -1 3.60956e-15
v -2.5 -5 -0.1
vt -295.276 -1.79532e-28
f 31/52/11 32/20/11 30/17/11 29/53/11 

v -5 -2.5 -0
vt 0 69.5971
vn -0.707107 -0.707107 -0
v -5 -2.5 -0.1
vt 0 -69.5971
f 33/54/12 34/16/12 32/13/12 31/55/12 

v -5 2.5 -0
vn -1 0 -0
v -5 2.5 -0.1
f 35/49/13 36/12/13 34/9/13 33/27/13 

v -2.5 5 -0
vn -0.707107 0.707107 -0
v -2.5 5 -0.1
f 37/22/14 38/8/14 36/5/14 35/23/14 

v 2.5 5 -0
vt 295.276 1.42109e-12
vn -7.21911e-17 1 3.60956e-15
v 2.5 5 -0.1
vt 98.4252 1.42109e-12
f 39/56/15 40/4/15 38/1/15 37/57/15 

vt 1.44382e-12 -69.5971
vn 0.707107 0.707107 2.59318e-15
vt 1.08287e-12 69.5971
f 28/58/16 27/32/16 40/29/16 39/59/16 

v 2.41716 4.8 -0
vt 292.014 385.827
vn 0 0 1
vt 393.701 295.276
vt 295.276 393.701
f 41/60/17 28/61/17 39/62/17

v 4.8 2.41716 -0
vt 385.827 292.014
f 42/63/17 28/61/17 41/60/17

v 4.8 -2.41716 -0
vt 385.827 101.687
f 43/64/17 28/61/17 42/63/17

vt 393.701 98.4252
f 43/64/17 25/65/17 28/61/17

v 2.41716 -4.8 -0
vt 292.014 7.87402
f 44/66/17 25/65/17 43/64/17

vt 295.276 2.84217e-14
f 44/66/17 29/67/17 25/65/17

vt 98.4252 2.84217e-14
f 29/67/17 44/66/17 31/68/17

v -2.41716 -4.8 -0
vt 101.687 7.87402
f 45/69/17 31/68/17 44/66/17

f 31/68/17 45/69/17 33/27/17

v -4.8 -2.41716 -0
vt 7.87402 101.687
f 33/27/17 45/69/17 46/70/17

f 33/27/17 46/70/17 35/49/17

v -4.8 2.41716 -0
vt 7.87402 292.014
f 35/49/17 46/70/17 47/71/17

v -2.41716 4.8 -0
vt 101.687 385.827
f 35/49/17 47/71/17 48/72/17

vt 98.4252 393.701
f 35/49/17 48/72/17 37/73/17

f 37/73/17 48/72/17 39/62/17

f 41/60/17 39/62/17 48/72/17

g Mesh3 Group3 Model

vt -98.4252 1.60297e-29
vn -7.21911e-17 -1 -4.51195e-16
vt -98.4252 31.4961
vt -295.276 31.4961
vt -295.276 4.44089e-16
f 32/74/18 10/75/18 12/76/18 30/77/18 

vt -31.4961 -69.5971
vn -0.707107 -0.707107 -1.62074e-16
vt -2.25597e-14 -69.5971
vt -1.57772e-30 69.5971
vt -31.4961 69.5971
f 10/78/19 32/79/19 34/80/19 8/81/19 

vt -31.4961 98.4252
vn -1 5.29495e-33 -9.02389e-16
v -5 2.5 -0.9
vt -31.4961 295.276
f 8/82/20 34/27/20 36/49/20 49/83/20 

vt -31.4961 208.791
vn -0.707107 0.707107 -3.24147e-16
vt 1.26218e-29 208.791
vt -4.51195e-14 347.986
v -2.5 5 -0.9
vt -31.4961 347.986
f 49/84/21 36/85/21 38/86/21 50/87/21 

vt 98.4252 31.4961
vn -7.21911e-17 1 -4.51195e-16
vt 98.4252 -1.77636e-13
vt 295.276 -1.77192e-13
v 2.5 5 -0.9
vt 295.276 31.4961
f 50/88/22 38/89/22 40/90/22 51/91/22 

vt -2.70273e-13 -69.5971
vn 0.707107 0.707107 -4.86221e-16
v 5 2.5 -0.9
vt 31.4961 -69.5971
vt 31.4961 69.5971
vt -2.02593e-13 69.5971
f 27/92/23 52/93/23 51/94/23 40/95/23 

vt 4.44089e-16 98.4252
vt 31.4961 98.4252
vt 31.4961 295.276
vt 4.44089e-16 295.276
f 26/96/7 14/97/7 52/98/7 27/99/7 

vt -3.71791e-13 208.791
vn 0.707107 -0.707107 -8.91406e-16
vt 31.4961 208.791
vt 31.4961 347.986
vt -4.9587e-13 347.986
f 30/100/24 12/101/24 14/102/24 26/103/24 

g Mesh4 Group4 Model

vt 0 66.3356
vn 0.707107 0.707107 -0
vt 0 -66.3356
vt 39.3701 -66.3356
vt 39.3701 66.3356
f 46/104/25 45/105/25 21/106/25 22/107/25 

vt 93.8127 0
vt 284.14 0
vt 284.14 39.3701
vt 93.8127 39.3701
f 45/108/1 44/109/1 20/110/1 21/111/1 

vt 0 200.917
v 4.8 -2.41716 -0
vt 0 333.589
v 4.8 -2.41716 -1
vt -39.3701 333.589
vt -39.3701 200.917
f 44/112/14 53/113/14 54/114/14 20/115/14 

vt 0 93.8127
v 4.8 2.41716 -0
vt 0 284.14
v 4.8 2.41716 -1
vt -39.3701 284.14
vt -39.3701 93.8127
f 53/116/13 55/117/13 56/118/13 54/119/13 

v 2.41716 4.8 -1
vt -39.3701 66.3356
vt -39.3701 -66.3356
f 55/105/12 41/104/12 57/120/12 56/121/12 

vt -284.14 0
vt -93.8127 0
v -2.41716 4.8 -1
vt -93.8127 39.3701
vt -284.14 39.3701
f 41/122/5 48/123/5 58/124/5 57/125/5 

v -4.8 2.41716 -1
vt 39.3701 200.917
vt 39.3701 333.589
f 48/113/6 47/112/6 59/126/6 58/127/6 

vt 39.3701 93.8127
vt 39.3701 284.14
f 47/117/7 46/116/7 22/128/7 59/129/7 

